# xmcd
#
# Track frame offsets: 
#        150
#        24015
#        44025
#        62097
#        91990
#        119237
#        122910
#        149615
#        166550
#        186105
#        215757
#        234637
#        252380
#        270467
#        303172
#
# Disc length: 4324 seconds
#
# Revision: 5
# Processed by: cddbd v1.5.2PL0 Copyright (c) Steve Scherf et al.
# Submitted via: ExactAudioCopy v0.99pb5
#
DISCID=db10e20f
DTITLE=Helloween - Walls Of Jericho  (Remasterd 1992)
DYEAR=1988
DGENRE=Heavy Metal
TTITLE0=Starlight
TTITLE1=Murderer
TTITLE2=Warrior
TTITLE3=Victim Of Fate
TTITLE4=Cry For Freedom
TTITLE5=Walls Of Jericho
TTITLE6=Ride The Sky
TTITLE7=Reptile
TTITLE8=Guardians
TTITLE9=Phantoms Of Death
TTITLE10=Metal Invaders
TTITLE11=Gorgar
TTITLE12=Heavy Metal (Is The Law)
TTITLE13=How Many Tears
TTITLE14=Judas
EXTD=YEAR: 1992
EXTT0=
EXTT1=
EXTT2=
EXTT3=
EXTT4=
EXTT5=
EXTT6=
EXTT7=
EXTT8=
EXTT9=
EXTT10=
EXTT11=
EXTT12=
EXTT13=
EXTT14=
PLAYORDER=
